<?xml version="1.0" encoding="UTF-8" standalone="no"?>
<!-- Created with Inkscape (http://www.inkscape.org/) -->

<svg
   xmlns:dc="http://purl.org/dc/elements/1.1/"
   xmlns:cc="http://creativecommons.org/ns#"
   xmlns:rdf="http://www.w3.org/1999/02/22-rdf-syntax-ns#"
   xmlns:svg="http://www.w3.org/2000/svg"
   xmlns="http://www.w3.org/2000/svg"
   xmlns:sodipodi="http://sodipodi.sourceforge.net/DTD/sodipodi-0.dtd"
   xmlns:inkscape="http://www.inkscape.org/namespaces/inkscape"
   version="1.1"
   id="svg815"
   width="241mm"
   height="161mm"
   viewBox="0 0 910.86613 608.50391"
   sodipodi:docname="mail.svg"
   shape-rendering="crispEdges"
   inkscape:version="0.92.5 (2060ec1f9f, 2020-04-08)">
  <metadata
     id="metadata821">
    <rdf:RDF>
      <cc:Work
         rdf:about="">
        <dc:format>image/svg+xml</dc:format>
        <dc:type
           rdf:resource="http://purl.org/dc/dcmitype/StillImage" />
        <dc:title></dc:title>
      </cc:Work>
    </rdf:RDF>
  </metadata>
  <defs
     id="defs819" />
  <sodipodi:namedview
     pagecolor="#ffffff"
     bordercolor="#666666"
     borderopacity="1"
     objecttolerance="10"
     gridtolerance="10"
     guidetolerance="10"
     inkscape:pageopacity="0"
     inkscape:pageshadow="2"
     inkscape:window-width="1920"
     inkscape:window-height="991"
     id="namedview817"
     showgrid="false"
     units="mm"
     inkscape:pagecheckerboard="true"
     showborder="false"
     inkscape:zoom="0.61333827"
     inkscape:cx="-27.58744"
     inkscape:cy="94.074543"
     inkscape:window-x="-9"
     inkscape:window-y="-9"
     inkscape:window-maximized="1"
     inkscape:current-layer="svg815" />
  <path
     style="fill:#42526e;fill-opacity:1;stroke-width:0.99918723"
     d="M 65.517138,607.73896 C 40.128913,604.45271 18.310311,588.36701 6.7447623,564.40921 -0.66164384,549.06698 -0.15990535,569.08733 0.14187975,300.94126 L 0.41311768,59.937245 2.5103671,53.860395 C 11.557065,27.647285 31.091203,9.1336553 56.98519,2.2314553 L 65.356715,-1.472441e-5 H 455.13056 c 374.35728,0 390.08267,0.07240000441 397.58161,1.83015002441 26.33563,6.17312 47.47581,26.1151197 55.81132,52.6480697 l 2.34265,7.45695 V 304.18159 546.42803 l -2.32642,7.49215 c -7.88518,25.39396 -27.94648,44.84903 -53.85426,52.22686 l -7.78221,2.21616 -387.2753,0.13027 c -219.9272,0.074 -390.229036,-0.25206 -394.110812,-0.75451 z M 818.86952,557.04277 c -0.5222,-0.48028 -50.87049,-42.3724 -111.88509,-93.09361 C 645.96984,413.22794 586.68562,363.93408 575.24174,354.40724 l -20.80706,-17.32154 -2.6956,2.27835 c -1.48259,1.25308 -12.30689,10.36986 -24.05401,20.25951 -11.74712,9.88965 -29.50448,24.88969 -39.4608,33.33341 -9.95632,8.44373 -20.12623,16.27114 -22.5998,17.39423 -5.87432,2.66718 -14.04727,2.68196 -20.01621,0.0362 -2.71397,-1.20298 -21.42146,-16.27286 -46.73874,-37.65054 L 356.656,337.09211 224.82068,446.75485 C 152.31126,507.06934 92.952835,556.75472 92.913069,557.16679 c -0.03977,0.41206 163.497791,0.74921 363.416801,0.74921 207.49539,0 363.08163,-0.37476 362.53965,-0.87323 z M 52.368659,524.94339 c 0.342145,-0.55336 59.846671,-50.30305 132.232291,-110.5549 72.38562,-60.25185 131.83508,-109.74179 132.10992,-109.97765 0.64747,-0.55563 2.38805,0.93932 -67.46086,-57.94091 C 216.26915,218.6682 185.46202,192.66737 180.78974,188.69031 176.11745,184.71326 150.03258,162.67982 122.82337,139.7271 95.614159,116.77439 68.404946,93.815585 62.358454,88.707545 c -6.046491,-5.10804 -11.330925,-9.28809 -11.743186,-9.28901 -0.412261,-9.3e-4 -0.749565,100.468165 -0.749565,223.264625 0,138.84295 0.355605,223.2663 0.940437,223.2663 0.517241,0 1.220374,-0.45273 1.562519,-1.00607 z M 861.1493,190.34017 860.89514,78.496645 742.96356,177.94163 c -149.45753,126.02902 -148.5775,125.27985 -148.21673,126.17599 0.1664,0.41338 27.06202,23.00403 59.76805,50.20146 32.70602,27.19744 92.52132,76.95352 132.92288,110.56908 l 73.45738,61.11918 0.25416,-111.91183 c 0.13979,-61.5515 0.13979,-162.2414 0,-223.75534 z M 465.43815,345.81725 c 5.32445,-4.57163 31.49316,-26.69103 58.15269,-49.15421 99.65094,-83.96538 138.03635,-116.3213 159.92787,-134.80683 12.37919,-10.45316 45.1922,-38.11075 72.91781,-61.46131 27.72561,-23.350565 52.22709,-44.130055 54.44774,-46.176665 l 4.03755,-3.7211 -359.29154,0.016 -359.291531,0.016 4.497381,4.07427 c 2.47357,2.24087 10.17721,8.85299 17.11919,14.69361 37.74252,31.754605 134.28833,113.214345 140.36301,118.430165 3.88822,3.33849 26.60004,22.54643 50.47072,42.68434 23.87069,20.1379 66.56281,56.19932 94.87138,80.13646 28.30858,23.93714 51.61117,43.53541 51.78353,43.55171 0.17237,0.0163 4.66976,-3.71079 9.9942,-8.28243 z"
     id="path825"
     inkscape:connector-curvature="0" />
</svg>
