<svg width="18" height="17" viewBox="0 0 18 17" fill="none" xmlns="http://www.w3.org/2000/svg">
<path fill-rule="evenodd" clip-rule="evenodd" d="M5.10125 9.34354H14.9215L16.2829 3.66222H4.26494L5.10125 9.34354ZM6.54529 12.739C5.65041 12.739 4.86657 12.0019 4.72223 11.0247L4.53813 9.76247L4.52416 9.73156C4.5161 9.71352 4.50984 9.68855 4.50984 9.67388V9.65526L3.43266 2.48241C3.36031 2.02817 3.00501 1.70018 2.58774 1.70018H1.31626C1.14183 1.70018 1 1.54302 1 1.35019C1 1.14725 1.13288 1 1.31626 1H2.56984C3.30569 1 3.94304 1.5997 4.05246 2.39462L4.13645 2.92238H16.6634C16.7786 2.92238 16.8549 2.98936 16.914 3.05496L16.95 3.0948C17.0309 3.25116 16.9924 3.34689 16.9793 3.37919L16.9727 3.39604L15.4643 9.77535C15.4434 9.86791 15.3757 9.96026 15.2913 10.0138C15.2666 10.0302 15.2467 10.0356 15.2172 10.0356C15.1925 10.0356 15.1665 10.032 15.1389 10.0268L15.1223 10.0239H5.19178L5.34275 10.9427C5.43068 11.5753 5.92924 12.039 6.52756 12.039H14.8549C15.0293 12.039 15.171 12.196 15.171 12.3888C15.171 12.5917 15.0381 12.739 14.8549 12.739H6.54529Z" fill="#091E42"/>
<path d="M5.10125 9.34354L4.75499 9.39451L4.799 9.69354H5.10125V9.34354ZM14.9215 9.34354V9.69354H15.1975L15.2618 9.4251L14.9215 9.34354ZM16.2829 3.66222L16.6232 3.74378L16.7266 3.31222H16.2829V3.66222ZM4.26494 3.66222V3.31222H3.85964L3.91867 3.7132L4.26494 3.66222ZM4.72223 11.0247L4.37589 11.0752L4.37598 11.0758L4.72223 11.0247ZM4.53813 9.76247L4.88447 9.71196L4.87736 9.66324L4.85709 9.61836L4.53813 9.76247ZM4.52416 9.73156L4.20461 9.87435L4.20521 9.87566L4.52416 9.73156ZM4.50984 9.65526H4.85984V9.62912L4.85596 9.60328L4.50984 9.65526ZM3.43266 2.48241L3.77879 2.43043L3.7783 2.42736L3.43266 2.48241ZM4.05246 2.39462L3.70565 2.44235L3.70681 2.44962L4.05246 2.39462ZM4.13645 2.92238L3.7908 2.97739L3.83775 3.27238H4.13645V2.92238ZM16.914 3.05496L16.6539 3.28923L16.6543 3.28962L16.914 3.05496ZM16.95 3.0948L17.2608 2.9339L17.24 2.89371L17.2097 2.86014L16.95 3.0948ZM16.9793 3.37919L16.6549 3.24789L16.6536 3.25109L16.9793 3.37919ZM16.9727 3.39604L16.647 3.26793L16.6379 3.29118L16.6321 3.3155L16.9727 3.39604ZM15.4643 9.77535L15.1237 9.69481L15.1229 9.69807L15.4643 9.77535ZM15.2913 10.0138L15.1038 9.71815L15.0974 9.72241L15.2913 10.0138ZM15.1389 10.0268L15.2032 9.68279L15.2004 9.6823L15.1389 10.0268ZM15.1223 10.0239L15.1838 9.67932L15.1533 9.67388H15.1223V10.0239ZM5.19178 10.0239V9.67388H4.77958L4.84641 10.0806L5.19178 10.0239ZM5.34275 10.9427L5.68952 10.8945L5.68812 10.8859L5.34275 10.9427ZM5.10125 9.69354H14.9215V8.99354H5.10125V9.69354ZM15.2618 9.4251L16.6232 3.74378L15.9425 3.58066L14.5811 9.26198L15.2618 9.4251ZM16.2829 3.31222H4.26494V4.01222H16.2829V3.31222ZM3.91867 3.7132L4.75499 9.39451L5.44752 9.29257L4.6112 3.61125L3.91867 3.7132ZM6.54529 12.389C5.84955 12.389 5.19138 11.8057 5.06847 10.9736L4.37598 11.0758C4.54176 12.1982 5.45128 13.089 6.54529 13.089V12.389ZM5.06856 10.9742L4.88447 9.71196L4.1918 9.81299L4.37589 11.0752L5.06856 10.9742ZM4.85709 9.61836L4.84312 9.58745L4.20521 9.87566L4.21918 9.90658L4.85709 9.61836ZM4.84371 9.58877C4.84938 9.60145 4.85204 9.61061 4.85359 9.61683C4.85453 9.62059 4.8558 9.62627 4.85695 9.63385C4.85795 9.64039 4.85984 9.65458 4.85984 9.67388H4.15984C4.15984 9.75273 4.18365 9.82743 4.20461 9.87434L4.84371 9.58877ZM4.85984 9.67388V9.65526H4.15984V9.67388H4.85984ZM4.85596 9.60328L3.77877 2.43043L3.08654 2.53439L4.16372 9.70723L4.85596 9.60328ZM3.7783 2.42736C3.68284 1.82804 3.20104 1.35018 2.58774 1.35018V2.05018C2.80898 2.05018 3.03777 2.22831 3.08701 2.53746L3.7783 2.42736ZM2.58774 1.35018H1.31626V2.05018H2.58774V1.35018ZM1.31626 1.35018C1.32597 1.35018 1.335 1.35251 1.34192 1.35575C1.34844 1.35881 1.35158 1.36193 1.35245 1.36289C1.35385 1.36445 1.35 1.36077 1.35 1.35019H0.65C0.65 1.70197 0.915885 2.05018 1.31626 2.05018V1.35018ZM1.35 1.35019C1.35 1.32512 1.3576 1.32418 1.34914 1.33355C1.34518 1.33793 1.33914 1.34268 1.33147 1.34608C1.32369 1.34954 1.31787 1.35 1.31626 1.35V0.65C0.906805 0.65 0.65 0.98844 0.65 1.35019H1.35ZM1.31626 1.35H2.56984V0.65H1.31626V1.35ZM2.56984 1.35C3.1079 1.35 3.61689 1.79693 3.70573 2.44234L4.39919 2.34689C4.26919 1.40247 3.50347 0.65 2.56984 0.65V1.35ZM3.70681 2.44962L3.7908 2.97739L4.4821 2.86737L4.39811 2.33961L3.70681 2.44962ZM4.13645 3.27238H16.6634V2.57238H4.13645V3.27238ZM16.6634 3.27238C16.6576 3.27238 16.65 3.27143 16.642 3.26902C16.6343 3.26669 16.6292 3.26394 16.6273 3.26278C16.6257 3.26181 16.6273 3.26254 16.6322 3.26696C16.6373 3.27149 16.6441 3.27834 16.6539 3.28923L17.174 2.8207C17.0991 2.73755 16.9341 2.57238 16.6634 2.57238V3.27238ZM16.6543 3.28962L16.6903 3.32946L17.2097 2.86014L17.1737 2.8203L16.6543 3.28962ZM16.6392 3.2557C16.6474 3.27162 16.6498 3.28048 16.6503 3.28251C16.6507 3.28433 16.6499 3.28162 16.65 3.27511C16.6502 3.26861 16.6512 3.26145 16.6531 3.25437C16.654 3.25101 16.6549 3.24828 16.6555 3.24649C16.656 3.24501 16.6564 3.24412 16.6549 3.24789L17.3038 3.51049C17.3156 3.48139 17.3472 3.40275 17.3498 3.29193C17.3525 3.18123 17.3262 3.06032 17.2608 2.9339L16.6392 3.2557ZM16.6536 3.25109L16.647 3.26793L17.2984 3.52414L17.3051 3.50729L16.6536 3.25109ZM16.6321 3.3155L15.1237 9.69482L15.8049 9.85589L17.3133 3.47657L16.6321 3.3155ZM15.1229 9.69807C15.1238 9.6941 15.1245 9.69316 15.1237 9.69489C15.1229 9.69656 15.1213 9.69955 15.1186 9.70327C15.1159 9.70698 15.1128 9.71045 15.1098 9.71335C15.1067 9.71627 15.1045 9.71779 15.1038 9.71822L15.4788 10.3093C15.6348 10.2104 15.7626 10.0427 15.8057 9.85264L15.1229 9.69807ZM15.0974 9.72241C15.1075 9.71567 15.1288 9.70329 15.159 9.69458C15.1882 9.68613 15.2106 9.68557 15.2172 9.68557V10.3856C15.3095 10.3856 15.3981 10.3631 15.4852 10.3051L15.0974 9.72241ZM15.2172 9.68557C15.2215 9.68557 15.2228 9.68587 15.2201 9.68555C15.2173 9.68522 15.2121 9.68447 15.2032 9.6828L15.0746 10.3709C15.1103 10.3776 15.1608 10.3856 15.2172 10.3856V9.68557ZM15.2004 9.6823L15.1838 9.67932L15.0608 10.3684L15.0774 10.3714L15.2004 9.6823ZM15.1223 9.67388H5.19178V10.3739H15.1223V9.67388ZM4.84641 10.0806L4.99738 10.9994L5.68812 10.8859L5.53715 9.96713L4.84641 10.0806ZM4.99608 10.9908C5.10537 11.7771 5.73569 12.389 6.52756 12.389V11.689C6.1228 11.689 5.75599 11.3734 5.68942 10.8945L4.99608 10.9908ZM6.52756 12.389H14.8549V11.689H6.52756V12.389ZM14.8549 12.389C14.8453 12.389 14.8362 12.3867 14.8293 12.3834C14.8227 12.3804 14.8195 12.3772 14.8186 12.3762C14.8171 12.3745 14.821 12.3781 14.821 12.3888H15.521C15.521 12.037 15.2553 11.689 14.8549 11.689V12.389ZM14.821 12.3888C14.821 12.4139 14.8134 12.4148 14.8218 12.4055C14.8258 12.4011 14.8318 12.3964 14.8395 12.3929C14.8473 12.3895 14.8532 12.389 14.8549 12.389V13.089C15.2643 13.089 15.521 12.7504 15.521 12.3888H14.821ZM14.8549 12.389H6.54529V13.089H14.8549V12.389Z" fill="#091E42"/>
<path d="M12.7545 16.4999H12.7545L12.7647 16.5C13.2547 16.5 13.6765 16.0949 13.6765 15.5087L13.6764 15.4966C13.6703 14.9151 13.233 14.5 12.7647 14.5L12.7545 14.5001C12.5053 14.503 12.274 14.616 12.1055 14.808L12.7545 16.4999ZM12.7545 16.4999C12.2942 16.4944 11.8666 16.0878 11.8533 15.5179M12.7545 16.4999L11.8533 15.5179M11.8533 15.5179L11.853 15.4976L11.853 15.4913C11.853 15.2239 11.9507 14.9844 12.1054 14.808L11.8533 15.5179Z" fill="#091E42" stroke="#091E42"/>
<path d="M7.10744 16.4999H7.10745L7.11764 16.5C7.6076 16.5 8.0294 16.0949 8.0294 15.5087L8.02934 15.4966C8.02316 14.9151 7.58593 14.5 7.11764 14.5L7.10737 14.5001C6.85819 14.503 6.62693 14.616 6.45836 14.808L7.10744 16.4999ZM7.10744 16.4999C6.64709 16.4944 6.21955 16.0878 6.20618 15.5179M7.10744 16.4999L6.20618 15.5179M6.20618 15.5179L6.20589 15.4976L6.20587 15.4913C6.20587 15.2239 6.30356 14.9844 6.45831 14.808L6.20618 15.5179Z" fill="#091E42" stroke="#091E42"/>
</svg>
