<svg width="18" height="18" viewBox="0 0 18 18" fill="none" xmlns="http://www.w3.org/2000/svg">
<path d="M8.61932 4.14167L9 4.5887L9.38068 4.14167C10.1064 3.28947 11.2214 2.75 12.375 2.75C14.4089 2.75 16 4.34114 16 6.375C16 7.62826 15.4409 8.80449 14.3552 10.1319C13.2637 11.4663 11.6929 12.8917 9.75163 14.6521L9.75091 14.6528L8.99872 15.3375L8.24877 14.66L8.24769 14.659L8.24613 14.6576C6.30592 12.8944 4.73603 11.4678 3.64494 10.1329C2.55912 8.80452 2 7.62827 2 6.375C2 4.34114 3.59114 2.75 5.625 2.75C6.77861 2.75 7.89362 3.28947 8.61932 4.14167ZM4.24387 10.0695C5.30241 11.3064 6.80796 12.6701 8.58021 14.2748L8.64645 14.3411L9 14.6946L9.35355 14.3411L9.41979 14.2748C11.192 12.6701 12.6976 11.3064 13.7561 10.0695C14.8116 8.83614 15.5 7.64331 15.5 6.375C15.5 4.59886 14.1511 3.25 12.375 3.25C11.1487 3.25 9.94354 3.96002 9.38348 5.02H8.62219C8.05708 3.96126 6.85283 3.25 5.625 3.25C3.84886 3.25 2.5 4.59886 2.5 6.375C2.5 7.64331 3.18837 8.83614 4.24387 10.0695Z" fill="#091E42" stroke="#091E42"/>
</svg>
