<svg width="16" height="16" viewBox="0 0 16 16" fill="none" xmlns="http://www.w3.org/2000/svg">
<g clip-path="url(#clip0_16_4462)">
<path d="M5.66659 13.3333C6.21887 13.3333 6.66659 12.8856 6.66659 12.3333V10.3333C6.66659 9.78105 7.1143 9.33333 7.66659 9.33333H8.33325C8.88554 9.33333 9.33325 9.78105 9.33325 10.3333V12.3333C9.33325 12.8856 9.78097 13.3333 10.3333 13.3333H11.6666C12.2189 13.3333 12.6666 12.8856 12.6666 12.3333V8.55464C12.6666 8.24832 12.9149 8 13.2212 8C13.7295 8 13.9701 7.37315 13.5923 7.0331L8.66888 2.60207C8.28858 2.25979 7.71126 2.25979 7.33095 2.60207L2.40758 7.0331C2.02975 7.37315 2.2703 8 2.77861 8C3.08493 8 3.33325 8.24832 3.33325 8.55464V12.3333C3.33325 12.8856 3.78097 13.3333 4.33325 13.3333H5.66659Z" fill="#7A869A"/>
</g>
<defs>
<clipPath id="clip0_16_4462">
<rect width="16" height="16" fill="white"/>
</clipPath>
</defs>
</svg>
