<svg width="16" height="16" viewBox="0 0 16 16" fill="none" xmlns="http://www.w3.org/2000/svg">
<path d="M3.13501 13.8383H3.20313L6.35911 13.5507C6.70483 13.5162 7.02817 13.3639 7.27487 13.1193L14.0863 6.30779C14.3507 6.02849 14.4936 5.65578 14.4837 5.27133C14.4737 4.88688 14.3118 4.52205 14.0334 4.25678L11.9597 2.18306C11.689 1.92884 11.3344 1.78297 10.9632 1.7732C10.592 1.76343 10.2301 1.89045 9.94648 2.13008L3.13501 8.94156C2.89038 9.18826 2.73806 9.5116 2.70362 9.85732L2.37818 13.0133C2.36799 13.1242 2.38237 13.2359 2.42031 13.3405C2.45824 13.4452 2.5188 13.5402 2.59766 13.6188C2.66838 13.6889 2.75225 13.7444 2.84446 13.7821C2.93667 13.8197 3.03541 13.8388 3.13501 13.8383ZM10.9077 3.24262L12.9738 5.30877L11.4601 6.78459L9.43184 4.75628L10.9077 3.24262ZM4.17187 9.98598L8.43282 5.7553L10.4763 7.79874L6.23802 12.037L3.96752 12.2489L4.17187 9.98598Z" fill="white"/>
</svg>
