<svg width="22" height="22" viewBox="0 0 22 22" fill="none" xmlns="http://www.w3.org/2000/svg">
<path d="M11 5.40832C12.0633 5.40832 12.925 6.26999 12.925 7.33332C12.925 8.39666 12.0633 9.25832 11 9.25832C9.93666 9.25832 9.07499 8.39666 9.07499 7.33332C9.07499 6.26999 9.93666 5.40832 11 5.40832ZM11 13.6583C13.7225 13.6583 16.5917 14.9967 16.5917 15.5833V16.5917H5.40832V15.5833C5.40832 14.9967 8.27749 13.6583 11 13.6583ZM11 3.66666C8.97416 3.66666 7.33332 5.30749 7.33332 7.33332C7.33332 9.35916 8.97416 11 11 11C13.0258 11 14.6667 9.35916 14.6667 7.33332C14.6667 5.30749 13.0258 3.66666 11 3.66666ZM11 11.9167C8.55249 11.9167 3.66666 13.145 3.66666 15.5833V18.3333H18.3333V15.5833C18.3333 13.145 13.4475 11.9167 11 11.9167Z" fill="#091E42"/>
</svg>
