<svg width="18" height="18" viewBox="0 0 18 18" fill="none" xmlns="http://www.w3.org/2000/svg">
<path fill-rule="evenodd" clip-rule="evenodd" d="M8.25 2.9375C5.31599 2.9375 2.9375 5.31599 2.9375 8.25C2.9375 11.184 5.31599 13.5625 8.25 13.5625C9.68303 13.5625 10.9835 12.9951 11.9391 12.0727C11.958 12.0479 11.9787 12.024 12.0014 12.0014C12.024 11.9787 12.0479 11.958 12.0727 11.9391C12.9951 10.9835 13.5625 9.68303 13.5625 8.25C13.5625 5.31599 11.184 2.9375 8.25 2.9375ZM13.44 12.4677C14.3763 11.3171 14.9375 9.84908 14.9375 8.25C14.9375 4.5566 11.9434 1.5625 8.25 1.5625C4.5566 1.5625 1.5625 4.5566 1.5625 8.25C1.5625 11.9434 4.5566 14.9375 8.25 14.9375C9.84908 14.9375 11.3171 14.3763 12.4677 13.44L15.2639 16.2361C15.5323 16.5046 15.9677 16.5046 16.2361 16.2361C16.5046 15.9677 16.5046 15.5323 16.2361 15.2639L13.44 12.4677Z" fill="#97A0AF"/>
</svg>
