<svg width="22" height="22" viewBox="0 0 22 22" fill="none" xmlns="http://www.w3.org/2000/svg">
<g clip-path="url(#clip0_16_7481)">
<path d="M20.0751 8.14917L19.1126 4.14333C18.911 3.31833 18.196 2.75 17.3618 2.75H4.6293C3.8043 2.75 3.08013 3.3275 2.88763 4.14333L1.92513 8.14917C1.70513 9.08417 1.90679 10.0375 2.49346 10.7892C2.56679 10.89 2.66763 10.9633 2.75013 11.055V17.4167C2.75013 18.425 3.57513 19.25 4.58346 19.25H17.4168C18.4251 19.25 19.2501 18.425 19.2501 17.4167V11.055C19.3326 10.9725 19.4335 10.89 19.5068 10.7983C20.0935 10.0467 20.3043 9.08417 20.0751 8.14917ZM17.3343 4.57417L18.2968 8.58C18.3885 8.965 18.306 9.35 18.0676 9.6525C17.9393 9.8175 17.6643 10.0833 17.206 10.0833C16.6468 10.0833 16.161 9.63417 16.0968 9.03833L15.5651 4.58333L17.3343 4.57417ZM11.9168 4.58333H13.7135L14.2085 8.72667C14.2543 9.08417 14.1443 9.44167 13.906 9.7075C13.7043 9.94583 13.411 10.0833 13.0351 10.0833C12.421 10.0833 11.9168 9.5425 11.9168 8.8825V4.58333ZM7.78263 8.72667L8.2868 4.58333H10.0835V8.8825C10.0835 9.5425 9.5793 10.0833 8.90096 10.0833C8.58929 10.0833 8.30513 9.94583 8.08513 9.7075C7.85596 9.44167 7.74596 9.08417 7.78263 8.72667ZM3.70346 8.58L4.6293 4.58333H6.43513L5.90346 9.03833C5.83013 9.63417 5.35346 10.0833 4.79429 10.0833C4.34513 10.0833 4.06096 9.8175 3.9418 9.6525C3.6943 9.35917 3.61179 8.965 3.70346 8.58ZM4.58346 17.4167V11.8892C4.6568 11.8983 4.72096 11.9167 4.79429 11.9167C5.59179 11.9167 6.31596 11.5867 6.84763 11.0458C7.39763 11.5958 8.13096 11.9167 8.96513 11.9167C9.76263 11.9167 10.4776 11.5867 11.0093 11.0642C11.5501 11.5867 12.2835 11.9167 13.1085 11.9167C13.8785 11.9167 14.6118 11.5958 15.1618 11.0458C15.6935 11.5867 16.4176 11.9167 17.2151 11.9167C17.2885 11.9167 17.3526 11.8983 17.426 11.8892V17.4167H4.58346Z" fill="#05132B"/>
</g>
<defs>
<clipPath id="clip0_16_7481">
<rect width="22" height="22" fill="white"/>
</clipPath>
</defs>
</svg>
